<mxfile host="65bd71144e">
    <diagram id="VlpxSpH36Lv5Ca8QG7JC" name="第 1 页">
        <mxGraphModel dx="2254" dy="635" grid="1" gridSize="10" guides="1" tooltips="1" connect="1" arrows="1" fold="1" page="1" pageScale="1" pageWidth="1200" pageHeight="1920" background="#FFFFFF" math="0" shadow="0">
            <root>
                <mxCell id="0"/>
                <mxCell id="1" parent="0"/>
                <mxCell id="2" value="开发一个管理系统" style="whiteSpace=wrap;html=1;" parent="1" vertex="1">
                    <mxGeometry x="330" y="2440" width="120" height="60" as="geometry"/>
                </mxCell>
                <mxCell id="3" value="BLOCK:不知道如何找到路" style="whiteSpace=wrap;html=1;" parent="1" vertex="1">
                    <mxGeometry x="260" y="110" width="120" height="60" as="geometry"/>
                </mxCell>
                <mxCell id="6" value="查询软件工程" style="whiteSpace=wrap;html=1;" parent="1" vertex="1">
                    <mxGeometry x="410" y="190" width="120" height="60" as="geometry"/>
                </mxCell>
                <mxCell id="8" value="起点" style="whiteSpace=wrap;html=1;" parent="1" vertex="1">
                    <mxGeometry x="260" y="30" width="120" height="60" as="geometry"/>
                </mxCell>
                <mxCell id="9" value="基本需求" style="whiteSpace=wrap;html=1;" parent="1" vertex="1">
                    <mxGeometry x="330" y="1940" width="120" height="60" as="geometry"/>
                </mxCell>
                <mxCell id="10" value="一个具有所有功能的原型系统" style="whiteSpace=wrap;html=1;" parent="1" vertex="1">
                    <mxGeometry x="330" y="2185" width="120" height="60" as="geometry"/>
                </mxCell>
                <mxCell id="11" value="美化" style="whiteSpace=wrap;html=1;" parent="1" vertex="1">
                    <mxGeometry x="330" y="2380" width="120" height="60" as="geometry"/>
                </mxCell>
                <mxCell id="14" value="&lt;font color=&quot;#000000&quot;&gt;增量模型+快速原型模型&lt;br&gt;&lt;br&gt;&lt;br&gt;&lt;/font&gt;" style="text;html=1;align=center;verticalAlign=middle;resizable=0;points=[];autosize=1;strokeColor=none;" parent="1" vertex="1">
                    <mxGeometry x="530" y="210" width="140" height="50" as="geometry"/>
                </mxCell>
                <mxCell id="15" value="审查修改系统" style="whiteSpace=wrap;html=1;" parent="1" vertex="1">
                    <mxGeometry x="330" y="2280" width="120" height="60" as="geometry"/>
                </mxCell>
                <mxCell id="16" value="更完善的需求" style="whiteSpace=wrap;html=1;" parent="1" vertex="1">
                    <mxGeometry x="330" y="2050" width="120" height="60" as="geometry"/>
                </mxCell>
                <mxCell id="17" value="BLOCK:什么是基本需求" style="whiteSpace=wrap;html=1;shadow=1;strokeWidth=0;" parent="1" vertex="1">
                    <mxGeometry x="260" y="260" width="120" height="60" as="geometry"/>
                </mxCell>
                <mxCell id="18" value="查询软件工程" style="whiteSpace=wrap;html=1;shadow=1;strokeWidth=0;" parent="1" vertex="1">
                    <mxGeometry x="-100" y="270" width="120" height="60" as="geometry"/>
                </mxCell>
                <mxCell id="20" value="先把功能架构图画出来" style="whiteSpace=wrap;html=1;shadow=1;strokeWidth=0;" parent="1" vertex="1">
                    <mxGeometry x="-230" y="270" width="120" height="60" as="geometry"/>
                </mxCell>
                <mxCell id="21" value="BLOCK:如何画" style="whiteSpace=wrap;html=1;shadow=1;strokeWidth=0;" parent="1" vertex="1">
                    <mxGeometry x="-220" y="390" width="120" height="60" as="geometry"/>
                </mxCell>
                <mxCell id="22" value="模仿的基础上开发" style="whiteSpace=wrap;html=1;shadow=1;strokeWidth=0;" parent="1" vertex="1">
                    <mxGeometry x="-370" y="390" width="120" height="60" as="geometry"/>
                </mxCell>
                <mxCell id="23" value="先把功能架构图画出来" style="whiteSpace=wrap;html=1;shadow=1;strokeWidth=0;" parent="1" vertex="1">
                    <mxGeometry x="-220" y="500" width="120" height="60" as="geometry"/>
                </mxCell>
                <mxCell id="24" value="&lt;font color=&quot;#000000&quot;&gt;跑不起来--&amp;gt;跑起来&lt;br&gt;大功能要有&lt;br&gt;小功能就是把模块分析的一边打通&lt;br&gt;&lt;/font&gt;" style="text;html=1;align=center;verticalAlign=middle;resizable=0;points=[];autosize=1;strokeColor=none;" parent="1" vertex="1">
                    <mxGeometry x="370" y="280" width="200" height="50" as="geometry"/>
                </mxCell>
                <mxCell id="25" value="学生信息管理" style="whiteSpace=wrap;html=1;shadow=1;strokeWidth=0;" parent="1" vertex="1">
                    <mxGeometry x="340" y="1860" width="120" height="60" as="geometry"/>
                </mxCell>
                <mxCell id="26" value="双用户登录" style="whiteSpace=wrap;html=1;shadow=1;strokeWidth=0;" parent="1" vertex="1">
                    <mxGeometry x="-50" y="1860" width="120" height="60" as="geometry"/>
                </mxCell>
                <mxCell id="27" value="" style="whiteSpace=wrap;html=1;shadow=1;strokeWidth=0;" parent="1" vertex="1">
                    <mxGeometry x="680" y="2050" width="120" height="60" as="geometry"/>
                </mxCell>
                <mxCell id="28" value="退出系统" style="whiteSpace=wrap;html=1;shadow=1;strokeWidth=0;" parent="1" vertex="1">
                    <mxGeometry x="830" y="1860" width="120" height="60" as="geometry"/>
                </mxCell>
                <mxCell id="34" value="再次加工" style="whiteSpace=wrap;html=1;shadow=1;strokeWidth=0;" parent="1" vertex="1">
                    <mxGeometry x="360" y="1520" width="120" height="60" as="geometry"/>
                </mxCell>
                <mxCell id="35" value="寻找现有代码" style="whiteSpace=wrap;html=1;shadow=1;strokeWidth=0;" parent="1" vertex="1">
                    <mxGeometry x="280" y="620" width="120" height="60" as="geometry"/>
                </mxCell>
                <mxCell id="37" value="增加" style="whiteSpace=wrap;html=1;shadow=1;strokeWidth=0;" parent="1" vertex="1">
                    <mxGeometry x="200" y="1680" width="120" height="60" as="geometry"/>
                </mxCell>
                <mxCell id="38" value="学号查询" style="whiteSpace=wrap;html=1;shadow=1;strokeWidth=0;" parent="1" vertex="1">
                    <mxGeometry x="350" y="1680" width="120" height="60" as="geometry"/>
                </mxCell>
                <mxCell id="40" value="通过学号修改" style="whiteSpace=wrap;html=1;shadow=1;strokeWidth=0;" parent="1" vertex="1">
                    <mxGeometry x="500" y="1680" width="120" height="60" as="geometry"/>
                </mxCell>
                <mxCell id="42" value="先跑起来" style="whiteSpace=wrap;html=1;shadow=1;strokeWidth=0;" parent="1" vertex="1">
                    <mxGeometry x="360" y="1250" width="120" height="60" as="geometry"/>
                </mxCell>
                <mxCell id="46" value="BLOCK:无法排查错误并解决" style="whiteSpace=wrap;html=1;shadow=1;strokeWidth=0;" parent="1" vertex="1">
                    <mxGeometry x="120" y="820" width="120" height="60" as="geometry"/>
                </mxCell>
                <mxCell id="48" value="代码项目1" style="whiteSpace=wrap;html=1;shadow=1;strokeWidth=0;" parent="1" vertex="1">
                    <mxGeometry x="120" y="740" width="120" height="60" as="geometry"/>
                </mxCell>
                <mxCell id="49" value="代码项目2" style="whiteSpace=wrap;html=1;shadow=1;strokeWidth=0;" parent="1" vertex="1">
                    <mxGeometry x="280" y="740" width="120" height="60" as="geometry"/>
                </mxCell>
                <mxCell id="50" value="&lt;font color=&quot;#000000&quot;&gt;质量好，但是跑不起来&lt;/font&gt;" style="text;html=1;align=center;verticalAlign=middle;resizable=0;points=[];autosize=1;strokeColor=none;" parent="1" vertex="1">
                    <mxGeometry x="110" y="710" width="140" height="20" as="geometry"/>
                </mxCell>
                <mxCell id="51" value="&lt;font color=&quot;#000000&quot;&gt;质量不好，但是跑得起来&lt;/font&gt;" style="text;html=1;align=center;verticalAlign=middle;resizable=0;points=[];autosize=1;strokeColor=none;" parent="1" vertex="1">
                    <mxGeometry x="265" y="710" width="150" height="20" as="geometry"/>
                </mxCell>
                <mxCell id="54" value="&lt;font color=&quot;#000000&quot;&gt;时间紧迫&lt;br&gt;忽略内功&lt;br&gt;放任不管&lt;br&gt;&lt;/font&gt;" style="text;html=1;align=center;verticalAlign=middle;resizable=0;points=[];autosize=1;strokeColor=none;" parent="1" vertex="1">
                    <mxGeometry x="60" y="840" width="60" height="50" as="geometry"/>
                </mxCell>
                <mxCell id="55" value="BLOCK:迁移问题" style="whiteSpace=wrap;html=1;" parent="1" vertex="1">
                    <mxGeometry x="380" y="980" width="120" height="60" as="geometry"/>
                </mxCell>
                <mxCell id="56" value="查看原项目与现项目的区别" style="whiteSpace=wrap;html=1;" parent="1" vertex="1">
                    <mxGeometry x="560" y="980" width="120" height="60" as="geometry"/>
                </mxCell>
                <mxCell id="58" value="目的:跳转到成功页面&lt;br&gt;页面可以进入&lt;br&gt;但是就是不可" style="text;html=1;align=center;verticalAlign=middle;resizable=0;points=[];autosize=1;strokeColor=none;fontColor=#000000;" parent="1" vertex="1">
                    <mxGeometry x="560" y="1050" width="130" height="50" as="geometry"/>
                </mxCell>
                <mxCell id="59" value="查看原项目与现项目的区别" style="whiteSpace=wrap;html=1;" parent="1" vertex="1">
                    <mxGeometry x="560" y="1120" width="120" height="60" as="geometry"/>
                </mxCell>
                <mxCell id="64" value="BLOCK:直接添加会很乱，使得系统无法控制" style="whiteSpace=wrap;html=1;shadow=1;strokeWidth=0;" parent="1" vertex="1">
                    <mxGeometry x="360" y="1420" width="120" height="60" as="geometry"/>
                </mxCell>
                <mxCell id="65" value="用软件工程把系统结构分清楚" style="whiteSpace=wrap;html=1;shadow=1;strokeWidth=0;" parent="1" vertex="1">
                    <mxGeometry x="630" y="1380" width="120" height="60" as="geometry"/>
                </mxCell>
                <mxCell id="66" value="BLOCK:要怎么分,分些什么,最终要分成什么样子" style="whiteSpace=wrap;html=1;shadow=1;strokeWidth=0;" parent="1" vertex="1">
                    <mxGeometry x="630" y="1460" width="120" height="60" as="geometry"/>
                </mxCell>
                <mxCell id="68" value="广泛地查看书籍" style="whiteSpace=wrap;html=1;shadow=1;strokeWidth=0;" parent="1" vertex="1">
                    <mxGeometry x="790" y="1460" width="120" height="60" as="geometry"/>
                </mxCell>
                <mxCell id="71" value="先往大方面分&lt;br&gt;如果不行再往小分&lt;br&gt;多文件一层&lt;br&gt;单文件一层&lt;br&gt;函数一层" style="whiteSpace=wrap;html=1;shadow=1;strokeWidth=0;" parent="1" vertex="1">
                    <mxGeometry x="790" y="1550" width="120" height="60" as="geometry"/>
                </mxCell>
                <mxCell id="73" value="以单文件分然后再分层" style="whiteSpace=wrap;html=1;shadow=1;strokeWidth=0;" parent="1" vertex="1">
                    <mxGeometry x="790" y="1630" width="120" height="60" as="geometry"/>
                </mxCell>
                <mxCell id="76" value="把项目改为MVC形式" style="whiteSpace=wrap;html=1;shadow=1;strokeWidth=0;" parent="1" vertex="1">
                    <mxGeometry x="990" y="1640" width="120" height="60" as="geometry"/>
                </mxCell>
                <mxCell id="78" value="弄懂MVC架构,看看自己的架构的区别" style="whiteSpace=wrap;html=1;shadow=1;strokeWidth=0;" parent="1" vertex="1">
                    <mxGeometry x="980" y="1300" width="120" height="60" as="geometry"/>
                </mxCell>
                <mxCell id="80" value="BLOCK:m中的数据如何流入v&lt;br&gt;" style="whiteSpace=wrap;html=1;shadow=1;strokeWidth=0;" parent="1" vertex="1">
                    <mxGeometry x="990" y="1200" width="120" height="60" as="geometry"/>
                </mxCell>
                <mxCell id="81" value="" style="triangle;whiteSpace=wrap;html=1;fontColor=#000000;" parent="1" vertex="1">
                    <mxGeometry x="250" y="1930" width="60" height="80" as="geometry"/>
                </mxCell>
                <mxCell id="82" value="弄懂MVC架构,看看自己的架构的区别" style="whiteSpace=wrap;html=1;shadow=1;strokeWidth=0;" parent="1" vertex="1">
                    <mxGeometry x="970" y="1500" width="120" height="60" as="geometry"/>
                </mxCell>
                <mxCell id="84" value="删除" style="whiteSpace=wrap;html=1;shadow=1;strokeWidth=0;" parent="1" vertex="1">
                    <mxGeometry x="70" y="1680" width="120" height="60" as="geometry"/>
                </mxCell>
            </root>
        </mxGraphModel>
    </diagram>
</mxfile>